# xmcd
#
# Track frame offsets:
#	150
#	15401
#	32212
#	57098
#	68573
#	88624
#	105384
#	126738
#	140906
#
# Disc length: 2159 seconds
#
# Revision: 1
# Processed by: cddbd v1.4PL0 Copyright (c) Steve Scherf et al.
# Submitted via: audiograbber 1.80.04
#
DISCID=79086d09
DTITLE=Ola Bjurman - Slowstarter
DYEAR=1998
DGENRE=blues
TTITLE0=Jessie
TTITLE1=Slowstarter
TTITLE2=Icy Blue Heart
TTITLE3=Tonight
TTITLE4=Between Trains
TTITLE5=Dusty Ol' Road
TTITLE6=Counting on You
TTITLE7=Lone Pilgrim
TTITLE8=Lovely Blue Eyes
EXTD=
EXTT0=
EXTT1=
EXTT2=
EXTT3=
EXTT4=
EXTT5=
EXTT6=
EXTT7=
EXTT8=
PLAYORDER=
